# xmcd
#
# Track frame offsets:
#	150
#	18109
#	31625
#	48125
#	65607
#	82952
#	97559
#	110846
#	125108
#	139924
#	157033
#
# Disc length: 2358
#
# Revision: 1
# Processed by: cddbd v1.5.1PL0 Copyright (c) Steve Scherf et al.
# Submitted via: VisiTrax 2.9.5.180 - For more info visit www.synapsa.com
# Normalized: r0:DSETVAR1
#
DISCID=8409340b
DTITLE=Various Artist - CDX 203 December 1998
DYEAR=1998
DGENRE=
TTITLE0=Warren Brothers - Better man
TTITLE1=Patty Loveless - Can't get enough
TTITLE2=Sawyer Brown - Drive me wild
TTITLE3=Brooks and Dunn - I can't get over you
TTITLE4=Travis Tritt - No more looking over my shoulder
TTITLE5=Shane McAnally - Say anything
TTITLE6=Monte Warden - Someday
TTITLE7=Wade Hayes - Tore up from the floor up
TTITLE8=Martina McBride - Wrong again
TTITLE9=Lisa Bowman - For me to know
TTITLE10=Keith Bryant - I laid her body down
EXTD=
EXTT0=
EXTT1=
EXTT2=
EXTT3=
EXTT4=
EXTT5=
EXTT6=
EXTT7=
EXTT8=
EXTT9=
EXTT10=
PLAYORDER=
